<svg version="1.0" xmlns="http://www.w3.org/2000/svg" width="277.333" height="312" viewBox="0 0 208 234"><path d="M96.7 64.4c-23.2 6.5-30.1 36.1-12.2 52.5 15.3 13.9 39.4 9.2 48.6-9.7 3.2-6.5 3.3-18.6.2-25.3-6.4-14-22.2-21.6-36.6-17.5zm17.1 12.7c6.2 3.1 10.2 9.5 10.2 16.6 0 11.5-7.7 19.3-19 19.3-10.9 0-19-7.9-19-18.4 0-5.8 1.4-9.3 5.3-13.5 6.1-6.4 14.4-7.9 22.5-4zM79.3 136.6c-5.8 2.1-12.6 8.5-15.7 14.6-2.1 4.3-2.6 6.6-2.6 13v7.8h10.7l.5-7c.6-8.4 3.6-13.7 9.5-16.6 3.4-1.7 6.1-1.9 23.9-1.9h20l4.3 2.8c5.4 3.6 8 9.2 8.1 17v5.8l5.8-.3 5.7-.3-.2-7.2c-.3-9.5-3.1-16-9.4-21.7-7.7-6.9-10.9-7.6-35.3-7.5-15.9 0-22.1.4-25.3 1.5z"/></svg>